<svg width="34" height="34" viewBox="0 0 34 34" fill="none" xmlns="http://www.w3.org/2000/svg">
<rect width="34" height="34" fill="#0D1856"/>
<path d="M26.9167 4.25H7.08333C5.51792 4.25 4.25 5.51792 4.25 7.08333V26.9167C4.25 28.4821 5.51792 29.75 7.08333 29.75H26.9167C28.4821 29.75 29.75 28.4821 29.75 26.9167V7.08333C29.75 5.51792 28.4821 4.25 26.9167 4.25ZM12.75 24.0833H9.17575V14.1667H12.75V24.0833ZM10.8998 12.3491C9.80758 12.3491 9.078 11.6209 9.078 10.6491C9.078 9.67725 9.80617 8.94908 11.0202 8.94908C12.1125 8.94908 12.8421 9.67725 12.8421 10.6491C12.8421 11.6209 12.1139 12.3491 10.8998 12.3491ZM25.5 24.0833H22.0405V18.6632C22.0405 17.1643 21.1182 16.8187 20.7726 16.8187C20.4269 16.8187 19.2737 17.0496 19.2737 18.6632C19.2737 18.8941 19.2737 24.0833 19.2737 24.0833H15.6995V14.1667H19.2737V15.5507C19.7342 14.7432 20.6564 14.1667 22.3862 14.1667C24.1159 14.1667 25.5 15.5507 25.5 18.6632V24.0833Z" fill="#364079"/>
</svg>
