<svg width="34" height="34" viewBox="0 0 34 34" fill="none" xmlns="http://www.w3.org/2000/svg">
<rect width="34" height="34" fill="#0D1856"/>
<path d="M26.9167 4.25H7.08333C5.51792 4.25 4.25 5.51792 4.25 7.08333V26.9167C4.25 28.4821 5.51792 29.75 7.08333 29.75H26.9167C28.4821 29.75 29.75 28.4821 29.75 26.9167V7.08333C29.75 5.51792 28.4821 4.25 26.9167 4.25ZM24.1542 13.4782C24.1542 13.6 24.1542 13.7204 24.1542 13.9641C24.1542 18.5782 20.6323 23.9218 14.1964 23.9218C12.2542 23.9218 10.4323 23.3141 8.85417 22.3437C9.09642 22.3437 9.46192 22.3437 9.70417 22.3437C11.2823 22.3437 12.8619 21.7359 14.076 20.8859C12.4978 20.8859 11.2838 19.7937 10.7978 18.4578C11.0401 18.4578 11.2837 18.5796 11.4056 18.5796C11.7697 18.5796 12.0133 18.5796 12.3774 18.4578C10.7993 18.0937 9.58517 16.7577 9.58517 15.0577C10.0711 15.3 10.557 15.4218 11.1633 15.5437C10.1915 14.6937 9.58517 13.7218 9.58517 12.5078C9.58517 11.9 9.707 11.2937 10.0711 10.8078C11.7711 12.8718 14.3211 14.3296 17.2352 14.45C17.2352 14.2077 17.1133 13.9641 17.1133 13.6C17.1133 11.6578 18.6915 10.0782 20.6352 10.0782C21.607 10.0782 22.5774 10.4423 23.1852 11.1704C24.0352 11.0486 24.7633 10.6845 25.3711 10.3204C25.1288 11.1704 24.5211 11.7782 23.7929 12.2627C24.5211 12.1408 25.1288 12.0204 25.857 11.6549C25.3682 12.3859 24.7619 12.9922 24.1542 13.4782Z" fill="#364079"/>
</svg>
